<svg width="78" height="90" viewBox="0 0 78 90" fill="none" xmlns="http://www.w3.org/2000/svg">
<path d="M38.9999 0L0 22.2857V66.857L38.9999 89.1427L77.989 66.8636L78.0001 66.8457V22.2852L38.9999 0ZM38.9999 8.57868L66.7352 24.425L59.2336 28.7131L39.0004 17.1563L18.7716 28.7163L11.2632 24.4248L38.9999 8.57868ZM55.4857 35.1517V49.7034L42.7541 42.4322V27.8797L55.4857 35.1517ZM35.2458 27.8797V42.429L22.5177 49.7019V35.152L35.2458 27.8797ZM35.2458 78.4208L7.50401 62.5701V30.8587L15.0074 35.1467V58.2812L35.2455 69.8456L35.2458 78.4208ZM26.2649 56.1351L38.9965 48.8596L51.7315 56.1351L38.9999 63.408L26.2649 56.1351ZM70.4946 62.5705L42.7528 78.4212V69.8443L62.9893 58.2834V35.1446L70.4926 30.8565V62.5701L70.4946 62.5705Z" fill="white"/>
</svg>
