<svg width="217" height="248" viewBox="0 0 217 248" fill="none" xmlns="http://www.w3.org/2000/svg">
<path d="M108.5 0L0 62V186L108.5 248L216.969 186.018L217 185.968V61.9988L108.5 0ZM108.5 23.8664L185.661 67.9518L164.791 79.8813L108.501 47.7297L52.2234 79.8904L31.3348 67.9511L108.5 23.8664ZM154.364 97.7941V138.278L118.944 118.049V77.563L154.364 97.7941ZM98.0555 77.563V118.04L62.6453 138.273V97.7947L98.0555 77.563ZM98.0555 218.171L20.8765 174.073V85.8506L41.7512 97.7802V162.141L98.0548 194.314L98.0555 218.171ZM73.0702 156.171L108.49 135.93L143.92 156.171L108.5 176.405L73.0702 156.171ZM196.119 174.075L118.94 218.172V194.311L175.239 162.148V97.7741L196.114 85.8446V174.073L196.119 174.075Z" fill="black"/>
</svg>
